<svg xmlns="http://www.w3.org/2000/svg" width="119.641" height="24" viewBox="0 0 119.641 24">
  <g id="Group_539" data-name="Group 539" transform="translate(-10993.071 6842)">
    <path id="Path_286" data-name="Path 286" d="M6.907,24h2.3c4.317,0,6.907-2.667,6.907-6.814V0H12.95V17.186c0,2.37-1.152,3.556-3.742,3.556h-2.3c-2.59,0-3.855-1.186-3.742-3.556L3.742,6.224H.863C.287,13.036,0,16.652,0,17.836,0,21.628,2.82,24,6.907,24" transform="translate(10993.071 -6842)" fill="#fff"/>
    <path id="Path_287" data-name="Path 287" d="M601.489,0h-3.165V17.276h3.165Z" transform="translate(10457.877 -6842)" fill="#fff"/>
    <path id="Path_288" data-name="Path 288" d="M365.53,0h-3.165V17.276h3.165Z" transform="translate(10668.94 -6842)" fill="#fff"/>
    <path id="Path_289" data-name="Path 289" d="M436.7,30.909h-6.447l-.287,3.167H436.7c2.072,0,3.165.864,3.165,2.88v2.3c0,2.016-1.152,2.591-3.165,2.591h-.863c-2.015,0-3.28-.577-3.165-2.591l.172-3.744h-2.993l-.345,3.744c-.345,3.742,2.3,5.758,6.332,5.758h.863c4.028,0,6.332-2.016,6.332-5.758v-2.3C443.028,33.212,440.438,30.909,436.7,30.909Z" transform="translate(10609.047 -6869.742)" fill="#fff"/>
    <path id="Path_290" data-name="Path 290" d="M646.927,30.893H633.573l-.287,3.273h13.641c2.359,0,3.165.893,3.165,2.977v2.38c0,2.084-.864,2.679-3.165,2.679h-8.059c-2.59,0-2.994-.6-2.878-2.679l.172-3.87h-2.993l-.345,3.87a6.072,6.072,0,0,0,.246,2.679h-2.548c-2.015,0-3.165-.893-3.165-2.977V37.141c0-3.87-2.59-6.25-6.332-6.25h-6.447l-.286,3.273h6.733c2.072,0,3.165.893,3.165,2.977v2.38q0,2.679-1.727,2.679a25.3,25.3,0,0,1-5.663-1.282,10.3,10.3,0,0,0,.195-1.394l.172-3.87h-2.993l-.345,3.87c-.172,2.084-.864,2.679-2.59,2.679h-.286c-1.727,0-2.59-.6-2.59-2.679V33.87H605.2v11.01c0,2.679-1.152,3.571-3.742,3.571h-3.165v3.273h3.165c4.126,0,6.673-2.45,6.889-6.823a5.838,5.838,0,0,0,2.608.573h.286a5.291,5.291,0,0,0,4.358-1.859c3.678,1.325,6.063,1.859,7.155,1.859a4.313,4.313,0,0,0,3.271-1.6,6.07,6.07,0,0,0,4.5,1.6h16.4c4.028,0,6.332-2.084,6.332-5.952v-2.38c0-3.87-2.3-6.25-6.332-6.25" transform="translate(10459.456 -6869.727)" fill="#fff"/>
    <path id="Path_291" data-name="Path 291" d="M207.025,44.3V37.159c0-3.87-2.59-6.25-6.332-6.25h-6.447l-.287,3.273h6.733c2.072,0,3.165.893,3.165,2.977v5.061h-4.317c-2.015,0-2.993-.6-2.878-2.678l.172-3.87h-2.993l-.345,3.87c-.345,3.87,2.015,5.953,5.757,5.953,1.539,0,3.08-.07,4.593-.183-.117,2.358-1.279,3.158-3.729,3.158H193.5v3.273h6.618c4.317,0,6.907-2.679,6.907-7.441" transform="translate(10820.081 -6869.742)" fill="#fff"/>
    <path id="Path_292" data-name="Path 292" d="M1011.351,85.238v2a11.309,11.309,0,0,0-6.4-1.089V83.107a11.107,11.107,0,0,1,5.378.651,1.575,1.575,0,0,1,1.023,1.478Z" transform="translate(10094.458 -6916.208)" fill="#0095da"/>
  </g>
</svg>
